<svg width="1024" height="1024" xmlns="http://www.w3.org/2000/svg" class="icon"><defs><style type="text/css"/></defs><g><title>background</title><rect fill="none" id="canvas_background" height="402" width="582" y="-1" x="-1"/></g><g><title>Layer 1</title><path id="svg_1" d="m110.339929,1215.534064l-266.24,0a37.274,37.274 0 0 1 -37.273,-37.273l0,-266.241a37.274,37.274 0 1 1 74.547,0l0,228.966l228.967,0a37.274,37.274 0 0 1 0,74.547l-0.001,0.001zm354.971,-354.971a37.274,37.274 0 0 1 -37.273,-37.273l0,-228.965l-228.968,0a37.274,37.274 0 1 1 0,-74.547l266.24,0a37.274,37.274 0 0 1 37.274,37.273l0,266.24a37.274,37.274 0 0 1 -37.274,37.274l0.001,-0.002z"/><path id="svg_2" d="m837.006725,490.533948l-266.24,0a37.274,37.274 0 0 1 -37.273,-37.273l0,-266.241a37.274,37.274 0 1 1 74.547,0l0,228.966l228.967,0a37.274,37.274 0 0 1 0,74.547l-0.001,0.001zm354.971,-354.971a37.274,37.274 0 0 1 -37.273,-37.273l0,-228.965l-228.968,0a37.274,37.274 0 1 1 0,-74.547l266.24,0a37.274,37.274 0 0 1 37.274,37.273l0,266.24a37.274,37.274 0 0 1 -37.274,37.274l0.001,-0.002z"/></g></svg>