<?xml version="1.0" standalone="no"?><!DOCTYPE svg PUBLIC "-//W3C//DTD SVG 1.1//EN" "http://www.w3.org/Graphics/SVG/1.1/DTD/svg11.dtd"><svg t="1623050865353" class="icon" viewBox="0 0 1024 1024" version="1.1" xmlns="http://www.w3.org/2000/svg" p-id="25194" xmlns:xlink="http://www.w3.org/1999/xlink" width="32" height="32"><defs><style type="text/css"></style></defs><path d="M475.34 850.534H209.1a37.274 37.274 0 0 1-37.273-37.273V547.02a37.274 37.274 0 1 1 74.547 0v228.966h228.967a37.274 37.274 0 0 1 0 74.547z m354.97-354.97a37.274 37.274 0 0 1-37.273-37.273V229.325H564.07a37.274 37.274 0 1 1 0-74.547h266.24a37.274 37.274 0 0 1 37.274 37.273v266.24a37.274 37.274 0 0 1-37.274 37.274z" p-id="25195"></path></svg>