<?xml version="1.0" standalone="no"?><!DOCTYPE svg PUBLIC "-//W3C//DTD SVG 1.1//EN" "http://www.w3.org/Graphics/SVG/1.1/DTD/svg11.dtd"><svg class="icon" width="32px" height="32.00px" viewBox="0 0 1024 1024" version="1.1" xmlns="http://www.w3.org/2000/svg"><path d="M412.903226 556.593548h112.309677l-56.154838-170.116129z" fill="#FF9C00" /><path d="M758.090323 36.335484L736.619355 14.864516h-545.032258c-46.245161 0-82.580645 36.335484-82.580645 82.580645v825.806452c0 46.245161 36.335484 82.580645 82.580645 82.580645h644.129032c46.245161 0 82.580645-36.335484 82.580645-82.580645V201.496774l-160.206451-165.16129zM599.535484 677.16129c-1.651613 4.954839-8.258065 8.258065-16.516129 8.258065-4.954839 0-9.909677-1.651613-13.212903-4.954839-3.303226-3.303226-6.606452-8.258065-8.258065-13.212903l-26.425806-75.974194h-132.129033l-19.819354 56.154839c-1.651613 4.954839-3.303226 9.909677-4.954839 13.212903s-3.303226 8.258065-4.954839 11.561291c-1.651613 3.303226-4.954839 6.606452-8.258064 8.258064-3.303226 1.651613-6.606452 3.303226-9.909678 3.303226-6.606452 0-11.56129-1.651613-14.864516-6.606452-3.303226-3.303226-3.303226-11.56129 0-23.12258l104.051613-302.245162c1.651613-4.954839 4.954839-9.909677 8.258064-13.212903s9.909677-4.954839 16.51613-4.954839 13.212903 1.651613 16.516129 4.954839c4.954839 3.303226 6.606452 6.606452 8.258064 13.212903l104.051613 303.896775c3.303226 9.909677 4.954839 16.516129 1.651613 21.470967z m90.83871-9.909677c0 13.212903-6.606452 18.167742-19.819355 18.167742-13.212903 0-18.167742-6.606452-18.167742-18.167742V355.096774c0-11.56129 6.606452-18.167742 18.167742-18.167742 6.606452 0 11.56129 1.651613 14.864516 4.954839 3.303226 3.303226 4.954839 8.258065 4.954839 14.864516v310.503226z" fill="#FF9C00" /><path d="M736.619355 14.864516h-3.303226v132.129032c0 16.516129 8.258065 52.851613 57.806452 52.851613h127.174193L736.619355 14.864516z" fill="#FFCE80" /></svg>