<?xml version="1.0" standalone="no"?><!DOCTYPE svg PUBLIC "-//W3C//DTD SVG 1.1//EN" "http://www.w3.org/Graphics/SVG/1.1/DTD/svg11.dtd"><svg class="icon" width="32px" height="32.00px" viewBox="0 0 1024 1024" version="1.1" xmlns="http://www.w3.org/2000/svg"><path d="M459.148387 464.103226c11.56129-9.909677 16.516129-23.122581 16.516129-39.63871s-4.954839-28.077419-14.864516-39.63871c-9.909677-9.909677-26.425806-14.864516-47.896774-14.864516h-59.458065V478.967742H412.903226c18.167742 0 34.683871-4.954839 46.245161-14.864516zM474.012903 528.516129c-14.864516-9.909677-37.987097-14.864516-66.064516-14.864516h-56.154839v128.825806h66.064517c26.425806 0 46.245161-4.954839 59.458064-14.864516 13.212903-9.909677 19.819355-26.425806 19.819355-47.896774-1.651613-23.122581-8.258065-41.290323-23.122581-51.2z" fill="#FFB400" /><path d="M758.090323 36.335484L736.619355 14.864516h-545.032258c-46.245161 0-82.580645 36.335484-82.580645 82.580645v825.806452c0 46.245161 36.335484 82.580645 82.580645 82.580645h644.129032c46.245161 0 82.580645-36.335484 82.580645-82.580645V201.496774l-160.206451-165.16129zM508.696774 650.735484c-18.167742 16.516129-42.941935 24.774194-74.32258 24.774193h-100.748388c-6.606452 0-11.56129-1.651613-14.864516-4.954838s-4.954839-8.258065-4.954838-13.212904V356.748387c0-4.954839 1.651613-9.909677 4.954838-13.212903 3.303226-3.303226 8.258065-4.954839 14.864516-4.954839H412.903226c18.167742 0 33.032258 1.651613 46.245161 6.606452 13.212903 3.303226 23.122581 9.909677 31.380645 18.167742 8.258065 8.258065 14.864516 16.516129 18.167742 26.425806 3.303226 9.909677 6.606452 21.470968 6.606452 34.683871 0 18.167742-4.954839 34.683871-16.516129 46.245161-9.909677 11.56129-24.774194 19.819355-41.290323 24.774194 23.122581 3.303226 41.290323 13.212903 56.154839 26.425806 14.864516 14.864516 21.470968 33.032258 21.470968 59.458065 0 29.729032-9.909677 52.851613-26.425807 69.367742z m199.845161-206.451613c-4.954839 1.651613-11.56129 3.303226-16.516129 4.954839-9.909677 0-19.819355 3.303226-28.077419 8.258064s-16.516129 11.56129-23.122581 18.167742c-6.606452 8.258065-11.56129 18.167742-14.864516 29.729032-3.303226 11.56129-4.954839 24.774194-4.954838 41.290323v117.264516c0 11.56129-6.606452 18.167742-18.167742 18.167742-13.212903 0-18.167742-6.606452-18.167742-18.167742v-231.225806c0-6.606452 1.651613-9.909677 4.954838-13.212904 3.303226-3.303226 8.258065-4.954839 14.864517-4.954838 4.954839 0 9.909677 1.651613 13.212903 3.303226 3.303226 3.303226 4.954839 6.606452 4.954839 13.212903v39.638709c3.303226-8.258065 8.258065-14.864516 13.212903-21.470967 4.954839-6.606452 9.909677-13.212903 16.516129-19.819355 6.606452-4.954839 13.212903-9.909677 21.470968-13.212903 8.258065-3.303226 16.516129-4.954839 24.774193-4.954839s13.212903 1.651613 14.864516 4.954839c3.303226 3.303226 4.954839 6.606452 4.954839 11.56129-3.303226 9.909677-4.954839 14.864516-9.909678 16.516129z" fill="#FFB400" /><path d="M736.619355 14.864516h-3.303226v132.129032c0 16.516129 8.258065 52.851613 57.806452 52.851613h127.174193L736.619355 14.864516z" fill="#FFDA80" /></svg>