<?xml version="1.0" standalone="no"?><!DOCTYPE svg PUBLIC "-//W3C//DTD SVG 1.1//EN" "http://www.w3.org/Graphics/SVG/1.1/DTD/svg11.dtd"><svg class="icon" width="32px" height="32.00px" viewBox="0 0 1024 1024" version="1.1" xmlns="http://www.w3.org/2000/svg"><path d="M736.619355 16.516129h-545.032258c-46.245161 0-82.580645 36.335484-82.580645 82.580645v825.806452c0 46.245161 36.335484 82.580645 82.580645 82.580645h644.129032c46.245161 0 82.580645-36.335484 82.580645-82.580645V198.193548l-181.677419-181.677419z" fill="#46CBAA" /><path d="M736.619355 14.864516h-3.303226v132.129032c0 16.516129 8.258065 52.851613 57.806452 52.851613h127.174193L736.619355 14.864516z" fill="#A3E5D5" /><path d="M407.948387 497.135484c23.122581 3.303226 41.290323 13.212903 56.154839 26.425806 14.864516 14.864516 21.470968 33.032258 21.470968 59.458065 0 29.729032-8.258065 52.851613-26.425807 71.019355-18.167742 16.516129-42.941935 24.774194-74.322581 24.774193h-100.748387c-6.606452 0-11.56129-1.651613-14.864516-4.954838s-4.954839-8.258065-4.954838-14.864517V360.051613c0-4.954839 1.651613-9.909677 4.954838-13.212903 3.303226-3.303226 8.258065-4.954839 14.864516-4.954839H363.354839c18.167742 0 33.032258 1.651613 46.245161 6.606452 13.212903 3.303226 23.122581 9.909677 31.380645 18.167742 8.258065 8.258065 14.864516 16.516129 18.167742 26.425806 3.303226 9.909677 6.606452 21.470968 6.606452 34.683871 0 18.167742-4.954839 34.683871-16.516129 46.245161-9.909677 9.909677-23.122581 18.167742-41.290323 23.122581z m-104.051613-16.516129H363.354839c21.470968 0 36.335484-4.954839 47.896774-14.864516 11.56129-9.909677 16.516129-23.122581 16.516129-39.63871s-4.954839-28.077419-14.864516-39.63871c-9.909677-9.909677-26.425806-14.864516-47.896774-14.864516h-59.458065v109.006452z m0 163.509677h66.064516c26.425806 0 46.245161-4.954839 59.458065-14.864516 13.212903-9.909677 19.819355-26.425806 19.819355-47.896774 0-23.122581-8.258065-39.63871-23.122581-49.548387-14.864516-9.909677-37.987097-14.864516-66.064516-14.864516h-56.154839V644.129032zM662.296774 374.916129v289.032258c0 6.606452-1.651613 11.56129-3.303226 14.864516-3.303226 3.303226-8.258065 4.954839-14.864516 4.954839s-13.212903-1.651613-14.864516-4.954839c-3.303226-3.303226-3.303226-8.258065-3.303226-14.864516V374.916129h-79.277419c-6.606452 0-9.909677-1.651613-14.864516-3.303226-3.303226-3.303226-4.954839-6.606452-4.954839-13.212903s1.651613-11.56129 4.954839-13.212903c3.303226-3.303226 8.258065-4.954839 13.212903-4.954839h198.193548c4.954839 0 9.909677 1.651613 13.212904 4.954839 3.303226 3.303226 4.954839 8.258065 4.954838 13.212903 0 6.606452-1.651613 11.56129-6.606451 13.212903-3.303226 1.651613-8.258065 3.303226-13.212903 3.303226h-79.27742z" fill="#FFFFFF" /></svg>