<?xml version="1.0" standalone="no"?><!DOCTYPE svg PUBLIC "-//W3C//DTD SVG 1.1//EN" "http://www.w3.org/Graphics/SVG/1.1/DTD/svg11.dtd"><svg class="icon" width="32px" height="32.00px" viewBox="0 0 1024 1024" version="1.1" xmlns="http://www.w3.org/2000/svg"><path d="M758.090323 36.335484L736.619355 14.864516h-545.032258c-46.245161 0-82.580645 36.335484-82.580645 82.580645v825.806452c0 46.245161 36.335484 82.580645 82.580645 82.580645h644.129032c46.245161 0 82.580645-36.335484 82.580645-82.580645V201.496774l-160.206451-165.16129zM440.980645 574.76129c-4.954839 19.819355-14.864516 37.987097-24.774193 54.503226-11.56129 14.864516-26.425806 28.077419-42.941936 36.335484-18.167742 8.258065-37.987097 13.212903-61.109677 13.212903h-92.490323c-9.909677 0-16.516129-1.651613-18.167742-4.954838s-3.303226-8.258065-3.303226-14.864517V358.4c0-6.606452 1.651613-11.56129 3.303226-14.864516 1.651613-3.303226 8.258065-4.954839 18.167742-4.954839h90.83871c24.774194 0 46.245161 4.954839 62.76129 13.212903 18.167742 8.258065 33.032258 21.470968 44.593549 36.335484 11.56129 14.864516 19.819355 33.032258 26.425806 54.503226 4.954839 19.819355 8.258065 42.941935 8.258064 66.064516-3.303226 23.122581-4.954839 44.593548-11.56129 66.064516zM827.458065 445.935484c-1.651613 6.606452-4.954839 13.212903-6.606452 19.819355l-64.412903 196.541935c-3.303226 6.606452-4.954839 11.56129-8.258065 14.864516-3.303226 3.303226-8.258065 4.954839-13.212903 4.954839-6.606452 0-11.56129-1.651613-14.864516-6.606452-3.303226-4.954839-6.606452-9.909677-8.258065-16.516129L657.341935 478.967742l-49.548387 161.858064c-3.303226 11.56129-6.606452 21.470968-9.909677 29.729033-3.303226 8.258065-9.909677 11.56129-16.516129 11.56129-4.954839 0-9.909677-1.651613-13.212903-4.954839-3.303226-3.303226-6.606452-8.258065-9.909678-16.516129l-64.412903-196.541935c-1.651613-4.954839-3.303226-11.56129-6.606452-19.819355-1.651613-6.606452-3.303226-13.212903-3.303225-16.516129 0-3.303226 1.651613-6.606452 4.954838-9.909677s6.606452-4.954839 13.212904-4.954839c9.909677 0 14.864516 6.606452 18.167742 18.167742L578.064516 622.658065l57.806452-186.632259c1.651613-6.606452 4.954839-11.56129 8.258064-14.864516 3.303226-3.303226 6.606452-4.954839 11.561291-4.954838 4.954839 0 8.258065 1.651613 11.56129 4.954838 3.303226 3.303226 4.954839 8.258065 8.258064 14.864516l59.458065 186.632259L792.774194 434.374194c3.303226-11.56129 9.909677-18.167742 19.819354-18.167742 6.606452 0 11.56129 1.651613 13.212904 3.303225 1.651613 3.303226 3.303226 6.606452 3.303225 9.909678 1.651613 3.303226 0 9.909677-1.651612 16.516129z" fill="#58C012" /><path d="M298.941935 371.612903h-62.76129V644.129032h75.974194c31.380645 0 56.154839-11.56129 72.670967-36.335484 18.167742-23.122581 26.425806-57.806452 26.425807-102.4 0-42.941935-8.258065-75.974194-26.425807-99.096774-19.819355-23.122581-47.896774-34.683871-85.883871-34.683871z" fill="#58C012" /><path d="M736.619355 14.864516h-3.303226v132.129032c0 16.516129 8.258065 52.851613 57.806452 52.851613h127.174193L736.619355 14.864516z" fill="#ACE089" /></svg>