<?xml version="1.0" standalone="no"?><!DOCTYPE svg PUBLIC "-//W3C//DTD SVG 1.1//EN" "http://www.w3.org/Graphics/SVG/1.1/DTD/svg11.dtd"><svg class="icon" width="32px" height="32.00px" viewBox="0 0 1024 1024" version="1.1" xmlns="http://www.w3.org/2000/svg"><path d="M758.090323 36.335484L736.619355 14.864516h-545.032258c-46.245161 0-82.580645 36.335484-82.580645 82.580645v825.806452c0 46.245161 36.335484 82.580645 82.580645 82.580645h644.129032c46.245161 0 82.580645-36.335484 82.580645-82.580645V201.496774l-160.206451-165.16129zM561.548387 384.825806c-3.303226 1.651613-8.258065 3.303226-16.516129 3.303226h-138.735484v112.309678h125.522581c9.909677 0 16.516129 3.303226 18.167742 9.909677 1.651613 3.303226 1.651613 8.258065 0 13.212903-1.651613 8.258065-8.258065 13.212903-18.167742 13.212904h-125.522581v145.341935c0 4.954839-1.651613 9.909677-4.954839 13.212903s-8.258065 4.954839-16.516129 4.954839c-6.606452 0-11.56129-1.651613-14.864516-4.954839-3.303226-3.303226-3.303226-8.258065-3.303225-13.212903V373.264516c0-8.258065 1.651613-13.212903 4.954838-16.516129 3.303226-3.303226 9.909677-4.954839 18.167742-4.954839H545.032258c13.212903 0 21.470968 6.606452 21.470968 18.167742 0 6.606452-1.651613 11.56129-4.954839 14.864516z m94.141936 293.987097c0 11.56129-6.606452 16.516129-19.819355 16.516129-13.212903 0-18.167742-6.606452-18.167742-16.516129V343.535484c0-6.606452 1.651613-11.56129 4.954839-14.864516s8.258065-4.954839 14.864516-4.954839 11.56129 1.651613 14.864516 4.954839c3.303226 3.303226 4.954839 8.258065 4.954838 14.864516v335.277419z" fill="#FF403F" /><path d="M736.619355 14.864516h-3.303226v132.129032c0 16.516129 8.258065 52.851613 57.806452 52.851613h127.174193L736.619355 14.864516z" fill="#FFA09F" /></svg>