<?xml version="1.0" standalone="no"?><!DOCTYPE svg PUBLIC "-//W3C//DTD SVG 1.1//EN" "http://www.w3.org/Graphics/SVG/1.1/DTD/svg11.dtd"><svg class="icon" width="32px" height="32.00px" viewBox="0 0 1024 1024" version="1.1" xmlns="http://www.w3.org/2000/svg"><path d="M758.090323 36.335484L736.619355 14.864516h-545.032258c-46.245161 0-82.580645 36.335484-82.580645 82.580645v825.806452c0 46.245161 36.335484 82.580645 82.580645 82.580645h644.129032c46.245161 0 82.580645-36.335484 82.580645-82.580645V201.496774l-160.206451-165.16129zM507.045161 685.419355c-3.303226 3.303226-8.258065 4.954839-13.212903 4.954839h-123.870968c-8.258065 0-14.864516-1.651613-19.819355-6.606452-4.954839-4.954839-6.606452-9.909677-6.606451-16.516129V363.354839c0-6.606452 1.651613-9.909677 4.954839-13.212904 3.303226-3.303226 8.258065-4.954839 13.212903-4.954838 13.212903 0 19.819355 6.606452 19.819355 18.167742v290.683871h110.658064c4.954839 0 9.909677 1.651613 13.212903 4.954838s4.954839 6.606452 4.954839 13.212904c1.651613 6.606452 0 9.909677-3.303226 13.212903z m184.980645-227.922581c-4.954839 1.651613-11.56129 3.303226-16.516129 4.954839-9.909677 0-19.819355 3.303226-28.077419 8.258064s-16.516129 11.56129-23.122581 18.167742c-6.606452 8.258065-11.56129 18.167742-14.864516 29.729033-3.303226 11.56129-4.954839 24.774194-4.954838 41.290322V677.16129c0 11.56129-6.606452 18.167742-18.167742 18.167742s-18.167742-6.606452-18.167742-18.167742V445.935484c0-6.606452 1.651613-9.909677 4.954838-13.212903 3.303226-3.303226 8.258065-4.954839 14.864517-4.954839 4.954839 0 9.909677 1.651613 13.212903 3.303226 3.303226 3.303226 4.954839 6.606452 4.954838 13.212903v39.63871c3.303226-8.258065 8.258065-14.864516 13.212904-21.470968 4.954839-6.606452 9.909677-13.212903 16.516129-19.819355 6.606452-4.954839 13.212903-9.909677 21.470967-13.212903 8.258065-3.303226 16.516129-4.954839 24.774194-4.954839s13.212903 1.651613 14.864516 4.954839c3.303226 3.303226 4.954839 6.606452 4.954839 11.56129-3.303226 9.909677-4.954839 14.864516-9.909678 16.516129z" fill="#78BAFF" /><path d="M736.619355 14.864516h-3.303226v132.129032c0 16.516129 8.258065 52.851613 57.806452 52.851613h127.174193L736.619355 14.864516z" fill="#BCDDFF" /></svg>