<?xml version="1.0" standalone="no"?><!DOCTYPE svg PUBLIC "-//W3C//DTD SVG 1.1//EN" "http://www.w3.org/Graphics/SVG/1.1/DTD/svg11.dtd"><svg class="icon" width="32px" height="32.00px" viewBox="0 0 1024 1024" version="1.1" xmlns="http://www.w3.org/2000/svg"><path d="M758.090323 36.335484L736.619355 14.864516h-545.032258c-46.245161 0-82.580645 36.335484-82.580645 82.580645v825.806452c0 46.245161 36.335484 82.580645 82.580645 82.580645h644.129032c46.245161 0 82.580645-36.335484 82.580645-82.580645V201.496774l-160.206451-165.16129zM508.696774 698.632258c-11.56129 8.258065-19.819355 4.954839-28.077419-4.954839L379.870968 549.987097 277.470968 693.677419c-3.303226 4.954839-8.258065 8.258065-13.212903 9.909678-4.954839 0-9.909677 0-14.864517-4.954839-4.954839-3.303226-6.606452-6.606452-6.606451-13.212903 0-4.954839 1.651613-9.909677 4.954838-14.864516l107.354839-153.6-90.838709-132.129033c-3.303226-3.303226-4.954839-8.258065-3.303226-13.212903 0-4.954839 3.303226-9.909677 6.606451-13.212903 4.954839-3.303226 9.909677-4.954839 13.212904-4.954839 3.303226 0 8.258065 3.303226 13.212903 9.909678l85.883871 122.219355 82.580645-118.916129c4.954839-8.258065 9.909677-11.56129 14.864516-13.212904 4.954839-1.651613 9.909677 0 14.864516 3.303226 9.909677 6.606452 9.909677 14.864516 3.303226 26.425807l-92.490323 132.129032 110.658065 156.903226c1.651613 4.954839 3.303226 8.258065 4.954839 13.212903-3.303226 4.954839-4.954839 9.909677-9.909678 13.212903z m274.167742-14.864516c0 4.954839-1.651613 9.909677-4.954839 13.212903-3.303226 3.303226-8.258065 4.954839-14.864516 4.954839s-13.212903-1.651613-14.864516-4.954839c-3.303226-3.303226-4.954839-8.258065-4.954839-13.212903v-31.380645c-6.606452 14.864516-16.516129 28.077419-31.380645 37.987097s-31.380645 14.864516-51.2 14.864516c-16.516129 0-29.729032-3.303226-42.941935-9.909678-13.212903-6.606452-24.774194-14.864516-34.683871-26.425806-9.909677-11.56129-16.516129-26.425806-21.470968-42.941936-4.954839-16.516129-8.258065-34.683871-8.258064-54.503225 0-24.774194 3.303226-44.593548 9.909677-62.761291 6.606452-18.167742 14.864516-31.380645 24.774194-42.941935 9.909677-11.56129 21.470968-19.819355 34.683871-24.774194 13.212903-4.954839 28.077419-8.258065 41.290322-8.258064 19.819355 0 36.335484 6.606452 49.548387 18.167742 13.212903 11.56129 24.774194 24.774194 29.729032 41.290322v-140.387097c0-4.954839 1.651613-9.909677 4.954839-13.212903 3.303226-3.303226 8.258065-6.606452 14.864516-6.606451s11.56129 1.651613 14.864516 6.606451c3.303226 3.303226 4.954839 8.258065 4.954839 13.212903v331.974194z" fill="#FF403F" /><path d="M726.709677 498.787097c-6.606452-9.909677-13.212903-16.516129-23.12258-23.122581-9.909677-4.954839-19.819355-8.258065-31.380645-8.258064-13.212903 0-24.774194 1.651613-34.683871 6.606451s-18.167742 11.56129-24.774194 21.470968c-6.606452 9.909677-11.56129 19.819355-14.864516 33.032258-3.303226 13.212903-4.954839 26.425806-4.954839 42.941936 0 31.380645 6.606452 56.154839 21.470968 74.32258s33.032258 26.425806 57.806452 26.425807c11.56129 0 23.122581-3.303226 31.380645-8.258065s16.516129-11.56129 23.12258-21.470968c6.606452-8.258065 9.909677-19.819355 13.212904-31.380645 3.303226-11.56129 4.954839-24.774194 4.954838-39.638709s-1.651613-26.425806-4.954838-39.63871c-3.303226-13.212903-8.258065-23.122581-13.212904-33.032258z" fill="#FF403F" /><path d="M736.619355 14.864516h-3.303226v132.129032c0 16.516129 8.258065 52.851613 57.806452 52.851613h127.174193L736.619355 14.864516z" fill="#FFA09F" /></svg>